<svg xmlns="http://www.w3.org/2000/svg" xmlns:xlink="http://www.w3.org/1999/xlink" version="1.1" width="256" height="256" viewBox="0 0 256 256" xml:space="preserve">

<defs>
</defs>
<g style="stroke: none; stroke-width: 0; stroke-dasharray: none; stroke-linecap: butt; stroke-linejoin: miter; stroke-miterlimit: 10; fill: none; fill-rule: nonzero; opacity: 1;" transform="translate(1.4065934065934016 1.4065934065934016) scale(2.81 2.81)" >
	<path d="M 0 9.246 v 50.237 c 0 3.449 2.796 6.245 6.245 6.245 h 29.208 v 21.27 l 19.095 -21.27 h 29.208 c 3.449 0 6.245 -2.796 6.245 -6.245 V 9.246 c 0 -3.449 -2.796 -6.245 -6.245 -6.245 H 6.245 C 2.796 3.001 0 5.797 0 9.246 z" style="stroke: none; stroke-width: 1; stroke-dasharray: none; stroke-linecap: butt; stroke-linejoin: miter; stroke-miterlimit: 10; fill: rgb(255,204,51); fill-rule: nonzero; opacity: 1;" transform=" matrix(1 0 0 1 0 0) " stroke-linecap="round" />
	<path d="M 21.572 41.7 c -0.771 0 -1.396 -0.625 -1.396 -1.396 V 30.272 c 0 -0.771 0.625 -1.396 1.396 -1.396 c 0.771 0 1.396 0.625 1.396 1.396 v 10.032 C 22.968 41.075 22.343 41.7 21.572 41.7 z" style="stroke: none; stroke-width: 1; stroke-dasharray: none; stroke-linecap: butt; stroke-linejoin: miter; stroke-miterlimit: 10; fill: rgb(19,110,241); fill-rule: nonzero; opacity: 1;" transform=" matrix(1 0 0 1 0 0) " stroke-linecap="round" />
	<path d="M 68.428 41.7 c -0.772 0 -1.396 -0.625 -1.396 -1.396 V 30.272 c 0 -0.771 0.624 -1.396 1.396 -1.396 c 0.772 0 1.396 0.625 1.396 1.396 v 10.032 C 69.824 41.075 69.2 41.7 68.428 41.7 z" style="stroke: none; stroke-width: 1; stroke-dasharray: none; stroke-linecap: butt; stroke-linejoin: miter; stroke-miterlimit: 10; fill: rgb(19,110,241); fill-rule: nonzero; opacity: 1;" transform=" matrix(1 0 0 1 0 0) " stroke-linecap="round" />
	<path d="M 57.677 20.095 H 46.396 v -5.842 c 0 -0.771 -0.625 -1.396 -1.396 -1.396 c -0.771 0 -1.396 0.625 -1.396 1.396 v 5.842 H 32.323 c -3.684 0 -6.681 2.997 -6.681 6.681 v 18.234 c 0 3.684 2.997 6.681 6.681 6.681 h 25.355 c 3.684 0 6.681 -2.997 6.681 -6.681 V 26.777 C 64.359 23.092 61.362 20.095 57.677 20.095 z" style="stroke: none; stroke-width: 1; stroke-dasharray: none; stroke-linecap: butt; stroke-linejoin: miter; stroke-miterlimit: 10; fill: rgb(19,110,241); fill-rule: nonzero; opacity: 1;" transform=" matrix(1 0 0 1 0 0) " stroke-linecap="round" />
	<path d="M 38.885 34.954 c -0.771 0 -1.396 -0.625 -1.396 -1.396 v -3.671 c 0 -0.771 0.625 -1.396 1.396 -1.396 s 1.396 0.625 1.396 1.396 v 3.671 C 40.281 34.329 39.656 34.954 38.885 34.954 z" style="stroke: none; stroke-width: 1; stroke-dasharray: none; stroke-linecap: butt; stroke-linejoin: miter; stroke-miterlimit: 10; fill: rgb(255,204,51); fill-rule: nonzero; opacity: 1;" transform=" matrix(1 0 0 1 0 0) " stroke-linecap="round" />
	<path d="M 51.115 34.954 c -0.771 0 -1.396 -0.625 -1.396 -1.396 v -3.671 c 0 -0.771 0.625 -1.396 1.396 -1.396 s 1.396 0.625 1.396 1.396 v 3.671 C 52.511 34.329 51.886 34.954 51.115 34.954 z" style="stroke: none; stroke-width: 1; stroke-dasharray: none; stroke-linecap: butt; stroke-linejoin: miter; stroke-miterlimit: 10; fill: rgb(255,204,51); fill-rule: nonzero; opacity: 1;" transform=" matrix(1 0 0 1 0 0) " stroke-linecap="round" />
	<path d="M 45 43.985 c -2.339 0 -4.679 -0.855 -6.954 -2.565 c -0.616 -0.464 -0.74 -1.338 -0.277 -1.955 c 0.462 -0.616 1.339 -0.74 1.955 -0.277 c 3.6 2.707 6.955 2.706 10.552 0 c 0.618 -0.463 1.493 -0.339 1.955 0.277 c 0.464 0.617 0.339 1.491 -0.277 1.955 C 49.679 43.13 47.34 43.985 45 43.985 z" style="stroke: none; stroke-width: 1; stroke-dasharray: none; stroke-linecap: butt; stroke-linejoin: miter; stroke-miterlimit: 10; fill: rgb(255,204,51); fill-rule: nonzero; opacity: 1;" transform=" matrix(1 0 0 1 0 0) " stroke-linecap="round" />
</g>
</svg>