<svg xmlns="http://www.w3.org/2000/svg" xmlns:xlink="http://www.w3.org/1999/xlink" version="1.1" width="256" height="256" viewBox="0 0 256 256" xml:space="preserve">

<defs>
</defs>
<g style="stroke: none; stroke-width: 0; stroke-dasharray: none; stroke-linecap: butt; stroke-linejoin: miter; stroke-miterlimit: 10; fill: none; fill-rule: nonzero; opacity: 1;" transform="translate(1.4065934065934016 1.4065934065934016) scale(2.81 2.81)" >
	<rect x="74.78" y="64.44" rx="0" ry="0" width="14.22" height="12" style="stroke: none; stroke-width: 1; stroke-dasharray: none; stroke-linecap: butt; stroke-linejoin: miter; stroke-miterlimit: 10; fill: rgb(243,112,90); fill-rule: nonzero; opacity: 1;" transform=" matrix(1 0 0 1 0 0) "/>
	<rect x="74.78" y="41.74" rx="0" ry="0" width="14.22" height="12" style="stroke: none; stroke-width: 1; stroke-dasharray: none; stroke-linecap: butt; stroke-linejoin: miter; stroke-miterlimit: 10; fill: rgb(102,198,185); fill-rule: nonzero; opacity: 1;" transform=" matrix(1 0 0 1 0 0) "/>
	<rect x="74.78" y="19.04" rx="0" ry="0" width="14.22" height="12" style="stroke: none; stroke-width: 1; stroke-dasharray: none; stroke-linecap: butt; stroke-linejoin: miter; stroke-miterlimit: 10; fill: rgb(255,209,92); fill-rule: nonzero; opacity: 1;" transform=" matrix(1 0 0 1 0 0) "/>
	<path d="M 89 77.438 H 74.776 c -0.553 0 -1 -0.447 -1 -1 V 64.44 c 0 -0.553 0.447 -1 1 -1 H 89 c 0.553 0 1 0.447 1 1 v 11.998 C 90 76.991 89.553 77.438 89 77.438 z M 75.776 75.438 H 88 V 65.44 H 75.776 V 75.438 z" style="stroke: none; stroke-width: 1; stroke-dasharray: none; stroke-linecap: butt; stroke-linejoin: miter; stroke-miterlimit: 10; fill: rgb(0,0,0); fill-rule: nonzero; opacity: 1;" transform=" matrix(1 0 0 1 0 0) " stroke-linecap="round" />
	<path d="M 89 54.737 H 74.776 c -0.553 0 -1 -0.447 -1 -1 V 41.739 c 0 -0.552 0.447 -1 1 -1 H 89 c 0.553 0 1 0.448 1 1 v 11.998 C 90 54.289 89.553 54.737 89 54.737 z M 75.776 52.737 H 88 v -9.998 H 75.776 V 52.737 z" style="stroke: none; stroke-width: 1; stroke-dasharray: none; stroke-linecap: butt; stroke-linejoin: miter; stroke-miterlimit: 10; fill: rgb(0,0,0); fill-rule: nonzero; opacity: 1;" transform=" matrix(1 0 0 1 0 0) " stroke-linecap="round" />
	<path d="M 89 32.035 H 74.776 c -0.553 0 -1 -0.448 -1 -1 V 19.037 c 0 -0.552 0.447 -1 1 -1 H 89 c 0.553 0 1 0.448 1 1 v 11.998 C 90 31.587 89.553 32.035 89 32.035 z M 75.776 30.035 H 88 v -9.998 H 75.776 V 30.035 z" style="stroke: none; stroke-width: 1; stroke-dasharray: none; stroke-linecap: butt; stroke-linejoin: miter; stroke-miterlimit: 10; fill: rgb(0,0,0); fill-rule: nonzero; opacity: 1;" transform=" matrix(1 0 0 1 0 0) " stroke-linecap="round" />
	<path d="M 74.776 48.737 H 48.961 c -0.553 0 -1 -0.447 -1 -1 s 0.447 -1 1 -1 h 25.815 c 0.553 0 1 0.447 1 1 S 75.328 48.737 74.776 48.737 z" style="stroke: none; stroke-width: 1; stroke-dasharray: none; stroke-linecap: butt; stroke-linejoin: miter; stroke-miterlimit: 10; fill: rgb(0,0,0); fill-rule: nonzero; opacity: 1;" transform=" matrix(1 0 0 1 0 0) " stroke-linecap="round" />
	<path d="M 74.776 71.44 H 59.869 c -0.553 0 -1 -0.447 -1 -1 V 25.036 c 0 -0.552 0.447 -1 1 -1 h 14.907 c 0.553 0 1 0.448 1 1 c 0 0.552 -0.447 1 -1 1 H 60.869 V 69.44 h 13.907 c 0.553 0 1 0.447 1 1 S 75.328 71.44 74.776 71.44 z" style="stroke: none; stroke-width: 1; stroke-dasharray: none; stroke-linecap: butt; stroke-linejoin: miter; stroke-miterlimit: 10; fill: rgb(0,0,0); fill-rule: nonzero; opacity: 1;" transform=" matrix(1 0 0 1 0 0) " stroke-linecap="round" />
	<path d="M 16.068 49.587 l -0.036 1.51 c 0 2.114 -1.64 3.926 -3.897 4.307 l -5.831 0.982 C 3.232 56.904 1 59.37 1 62.247 v 14.286 h 43.226 V 62.247 c 0 -2.877 -2.232 -5.344 -5.303 -5.861 l -5.831 -0.982 c -2.257 -0.38 -3.897 -2.192 -3.897 -4.307 l -0.036 -1.51" style="stroke: none; stroke-width: 1; stroke-dasharray: none; stroke-linecap: butt; stroke-linejoin: miter; stroke-miterlimit: 10; fill: rgb(206,214,224); fill-rule: nonzero; opacity: 1;" transform=" matrix(1 0 0 1 0 0) " stroke-linecap="round" />
	<path d="M 22.601 66.111 l 10.466 -10.707 h 0.025 c -2.257 -0.38 -3.897 -2.192 -3.897 -4.307 l -0.036 -1.51 h 0.005 H 16.068 l -0.036 1.51 c 0 2.114 -1.64 3.926 -3.897 4.307 L 22.601 66.111" style="stroke: none; stroke-width: 1; stroke-dasharray: none; stroke-linecap: butt; stroke-linejoin: miter; stroke-miterlimit: 10; fill: rgb(255,220,165); fill-rule: nonzero; opacity: 1;" transform=" matrix(1 0 0 1 0 0) " stroke-linecap="round" />
	<path d="M 34.194 33.21 l -0.46 7.149 c -0.454 5.429 -4.029 10.095 -9.153 11.947 l 0 0 c -0.64 0.231 -1.311 0.347 -1.981 0.347 c -0.67 0 -1.341 -0.116 -1.981 -0.347 l 0 0 c -5.123 -1.851 -8.699 -6.518 -9.153 -11.947 l -0.432 -7.149 v -8.546 h 23.16 V 33.21 z" style="stroke: none; stroke-width: 1; stroke-dasharray: none; stroke-linecap: butt; stroke-linejoin: miter; stroke-miterlimit: 10; fill: rgb(255,220,165); fill-rule: nonzero; opacity: 1;" transform=" matrix(1 0 0 1 0 0) " stroke-linecap="round" />
	<path d="M 34.194 33.21 c 5.115 -7.612 2.794 -12.8 -5.442 -16.059 c 0.18 -0.752 1.217 -1.504 2.853 -2.256 c -6.772 -2.545 -14.827 -1.963 -18.511 3.988 c -5.048 1.702 -6.594 7.351 -2.06 14.328 c 0.506 -8.539 6.049 -7.845 12.741 -5.043 c 3.384 1.295 6.322 1.162 9.091 0.73 C 34.381 28.614 34.306 31.307 34.194 33.21 z" style="stroke: none; stroke-width: 1; stroke-dasharray: none; stroke-linecap: butt; stroke-linejoin: miter; stroke-miterlimit: 10; fill: rgb(65,90,107); fill-rule: nonzero; opacity: 1;" transform=" matrix(1 0 0 1 0 0) " stroke-linecap="round" />
	<path d="M 44.226 77.533 H 1 c -0.552 0 -1 -0.447 -1 -1 V 62.248 C 0 58.88 2.581 56 6.137 55.4 l 5.831 -0.982 c 1.774 -0.299 3.063 -1.694 3.063 -3.319 l 0.037 -1.535 c 0.014 -0.552 0.476 -0.961 1.024 -0.976 c 0.552 0.014 0.989 0.472 0.975 1.024 l -0.037 1.511 c 0 2.58 -1.989 4.806 -4.73 5.268 L 6.47 57.373 C 3.88 57.809 2 59.859 2 62.248 v 13.285 h 41.226 V 62.248 c 0 -2.389 -1.88 -4.439 -4.469 -4.875 l -5.831 -0.982 c -2.741 -0.462 -4.731 -2.688 -4.731 -5.292 l -0.036 -1.486 c -0.014 -0.553 0.423 -1.011 0.975 -1.024 c 0.536 -0.014 1.01 0.423 1.024 0.976 l 0.037 1.511 c 0 1.649 1.289 3.045 3.063 3.344 l 5.831 0.982 c 3.556 0.6 6.137 3.48 6.137 6.848 v 14.285 C 45.226 77.085 44.778 77.533 44.226 77.533 z" style="stroke: none; stroke-width: 1; stroke-dasharray: none; stroke-linecap: butt; stroke-linejoin: miter; stroke-miterlimit: 10; fill: rgb(0,0,0); fill-rule: nonzero; opacity: 1;" transform=" matrix(1 0 0 1 0 0) " stroke-linecap="round" />
	<path d="M 34.194 34.21 c -0.106 0 -0.214 -0.017 -0.319 -0.052 c -0.427 -0.144 -0.706 -0.556 -0.679 -1.006 c 0.133 -2.277 -0.042 -3.024 -0.188 -3.265 c -2.696 0.417 -5.889 0.629 -9.59 -0.786 c -2.89 -1.21 -6.95 -2.641 -9.178 -1.252 c -1.299 0.81 -2.042 2.634 -2.207 5.421 c -0.025 0.431 -0.325 0.797 -0.742 0.908 c -0.418 0.109 -0.858 -0.06 -1.094 -0.422 c -2.623 -4.037 -3.472 -7.972 -2.391 -11.08 c 0.742 -2.133 2.379 -3.762 4.631 -4.619 c 4.173 -6.325 12.767 -6.636 19.522 -4.098 c 0.378 0.142 0.633 0.497 0.648 0.9 c 0.014 0.403 -0.215 0.776 -0.582 0.944 c -0.813 0.374 -1.339 0.688 -1.679 0.936 c 3.922 1.775 6.34 4.069 7.198 6.83 c 0.909 2.928 0.062 6.359 -2.518 10.199 C 34.835 34.05 34.521 34.21 34.194 34.21 z M 24.028 14.467 c -4.059 0 -7.895 1.409 -10.083 4.942 c -0.123 0.198 -0.31 0.347 -0.531 0.421 c -1.854 0.625 -3.141 1.836 -3.72 3.503 c -0.662 1.904 -0.377 4.269 0.792 6.83 c 0.502 -1.877 1.394 -3.2 2.695 -4.011 c 2.981 -1.858 7.433 -0.392 10.98 1.093 c 3.26 1.247 6.039 1.057 8.551 0.664 c 0.575 -0.108 1.144 0.04 1.576 0.42 c 0.366 0.323 0.601 0.78 0.747 1.323 c 0.889 -2.063 1.09 -3.902 0.597 -5.489 c -0.755 -2.431 -3.193 -4.477 -7.247 -6.081 c -0.462 -0.183 -0.72 -0.678 -0.605 -1.162 c 0.15 -0.629 0.581 -1.203 1.343 -1.767 C 27.456 14.713 25.722 14.467 24.028 14.467 z" style="stroke: none; stroke-width: 1; stroke-dasharray: none; stroke-linecap: butt; stroke-linejoin: miter; stroke-miterlimit: 10; fill: rgb(0,0,0); fill-rule: nonzero; opacity: 1;" transform=" matrix(1 0 0 1 0 0) " stroke-linecap="round" />
	<path d="M 22.601 53.653 c -0.792 0 -1.572 -0.137 -2.32 -0.406 c -5.475 -1.979 -9.325 -7.004 -9.81 -12.804 l -0.434 -7.171 c -0.034 -0.551 0.386 -1.025 0.938 -1.059 c 0.542 -0.048 1.025 0.386 1.059 0.938 l 0.432 7.148 c 0.418 5.001 3.754 9.353 8.495 11.067 c 1.059 0.382 2.226 0.381 3.283 0 c 4.74 -1.713 8.076 -6.067 8.495 -11.09 l 0.458 -7.129 c 0.036 -0.551 0.522 -0.963 1.062 -0.934 c 0.551 0.036 0.969 0.511 0.934 1.062 l -0.459 7.148 c -0.487 5.82 -4.337 10.845 -9.811 12.824 C 24.173 53.516 23.393 53.653 22.601 53.653 z" style="stroke: none; stroke-width: 1; stroke-dasharray: none; stroke-linecap: butt; stroke-linejoin: miter; stroke-miterlimit: 10; fill: rgb(0,0,0); fill-rule: nonzero; opacity: 1;" transform=" matrix(1 0 0 1 0 0) " stroke-linecap="round" />
	<path d="M 22.601 67.111 c -0.269 0 -0.527 -0.108 -0.715 -0.301 L 11.419 56.103 c -0.386 -0.396 -0.378 -1.028 0.016 -1.414 c 0.397 -0.387 1.028 -0.378 1.415 0.016 l 9.75 9.976 l 9.751 -9.976 c 0.388 -0.394 1.019 -0.402 1.415 -0.016 c 0.395 0.386 0.402 1.019 0.016 1.414 L 23.316 66.811 C 23.127 67.003 22.87 67.111 22.601 67.111 z" style="stroke: none; stroke-width: 1; stroke-dasharray: none; stroke-linecap: butt; stroke-linejoin: miter; stroke-miterlimit: 10; fill: rgb(0,0,0); fill-rule: nonzero; opacity: 1;" transform=" matrix(1 0 0 1 0 0) " stroke-linecap="round" />
	<path d="M 22.527 47.673 c -2.238 0 -4.206 -1.19 -4.784 -2.892 c -0.178 -0.523 0.102 -1.091 0.625 -1.269 c 0.522 -0.178 1.09 0.102 1.269 0.625 c 0.259 0.763 1.336 1.535 2.891 1.535 c 1.555 0 2.631 -0.772 2.891 -1.535 c 0.177 -0.523 0.745 -0.803 1.269 -0.625 c 0.523 0.178 0.803 0.746 0.625 1.269 C 26.733 46.483 24.765 47.673 22.527 47.673 z" style="stroke: none; stroke-width: 1; stroke-dasharray: none; stroke-linecap: butt; stroke-linejoin: miter; stroke-miterlimit: 10; fill: rgb(0,0,0); fill-rule: nonzero; opacity: 1;" transform=" matrix(1 0 0 1 0 0) " stroke-linecap="round" />
	<path d="M 20.053 38 h -3.052 c -0.552 0 -1 -0.448 -1 -1 s 0.448 -1 1 -1 h 3.052 c 0.552 0 1 0.448 1 1 S 20.605 38 20.053 38 z" style="stroke: none; stroke-width: 1; stroke-dasharray: none; stroke-linecap: butt; stroke-linejoin: miter; stroke-miterlimit: 10; fill: rgb(0,0,0); fill-rule: nonzero; opacity: 1;" transform=" matrix(1 0 0 1 0 0) " stroke-linecap="round" />
	<path d="M 28.053 38 h -3.052 c -0.552 0 -1 -0.448 -1 -1 s 0.448 -1 1 -1 h 3.052 c 0.552 0 1 0.448 1 1 S 28.605 38 28.053 38 z" style="stroke: none; stroke-width: 1; stroke-dasharray: none; stroke-linecap: butt; stroke-linejoin: miter; stroke-miterlimit: 10; fill: rgb(0,0,0); fill-rule: nonzero; opacity: 1;" transform=" matrix(1 0 0 1 0 0) " stroke-linecap="round" />
	<path d="M 11 77.533 c -0.552 0 -1 -0.447 -1 -1 v -6 c 0 -0.553 0.448 -1 1 -1 s 1 0.447 1 1 v 6 C 12.001 77.085 11.553 77.533 11 77.533 z" style="stroke: none; stroke-width: 1; stroke-dasharray: none; stroke-linecap: butt; stroke-linejoin: miter; stroke-miterlimit: 10; fill: rgb(0,0,0); fill-rule: nonzero; opacity: 1;" transform=" matrix(1 0 0 1 0 0) " stroke-linecap="round" />
	<path d="M 34.226 77.533 c -0.552 0 -1 -0.447 -1 -1 v -6 c 0 -0.553 0.448 -1 1 -1 c 0.552 0 1 0.447 1 1 v 6 C 35.226 77.085 34.778 77.533 34.226 77.533 z" style="stroke: none; stroke-width: 1; stroke-dasharray: none; stroke-linecap: butt; stroke-linejoin: miter; stroke-miterlimit: 10; fill: rgb(0,0,0); fill-rule: nonzero; opacity: 1;" transform=" matrix(1 0 0 1 0 0) " stroke-linecap="round" />
</g>
</svg>